# xmcd
#
# Track frame offsets:
#	150
#	15673
#	30215
#	45777
#	62090
#	80250
#	95086
#	109961
#	124078
#	140440
#	158003
#	172221
#	187979
#	202648
#	219682
#	234627
#
# Disc length: 3549 seconds
#
# Revision: 0
# Processed by: cddbd v1.5.1PL0 Copyright (c) Steve Scherf et al.
# Submitted via: audiograbber 1.83.01
#
DISCID=cc0ddb10
DTITLE=Brunner and Brunner - Unsere Grosse Zeit Cd II
DYEAR=1900
DGENRE=
TTITLE0=Tief In Der Nacht
TTITLE1=Es Ist Diese Sehnsucht Nach Dir
TTITLE2=Wenn Du Einsam Bist
TTITLE3=Lieb' Mich Mit Leib und Seele
TTITLE4=Für Dich
TTITLE5=Du, Ich Brauche Deine Zärtlichkeit
TTITLE6=Cabriolet
TTITLE7=Dieses Mal Für Immer
TTITLE8=Nur Die Liebe und Der Rock 'n' Roll
TTITLE9=Du Lässt Es Mich Spüren
TTITLE10=Marijana
TTITLE11=Gib' Mir Doch Ein Zeichen
TTITLE12=Und Da Kommst Du Einfach Daher
TTITLE13=Wenn Ich Deine Liebe Spür'
TTITLE14=Die Letzte Nacht
TTITLE15=Hit Mix 2
EXTD=
EXTT0=
EXTT1=
EXTT2=
EXTT3=
EXTT4=
EXTT5=
EXTT6=
EXTT7=
EXTT8=
EXTT9=
EXTT10=
EXTT11=
EXTT12=
EXTT13=
EXTT14=
EXTT15=
PLAYORDER=
